<svg width="30" height="20" viewBox="0 0 30 20" fill="none" xmlns="http://www.w3.org/2000/svg">
<path d="M30 17.5V2.5C30 1.11667 28.8183 0 27.3545 0H2.6455C1.18166 0 0 1.11667 0 2.5V17.5C0 18.8833 1.18166 20 2.6455 20H27.3545C28.8183 20 30 18.8833 30 17.5ZM27.6896 2.31667C28.2716 2.86667 27.9541 3.43333 27.6367 3.71667L20.4762 9.91667L27.3545 16.6833C27.5661 16.9167 27.7072 17.2833 27.4603 17.5333C27.231 17.8 26.7019 17.7833 26.4727 17.6167L18.7654 11.4L14.9912 14.65L11.2346 11.4L3.52734 17.6167C3.29806 17.7833 2.76896 17.8 2.53968 17.5333C2.29277 17.2833 2.43386 16.9167 2.6455 16.6833L9.52381 9.91667L2.36332 3.71667C2.04586 3.43333 1.72839 2.86667 2.31041 2.31667C2.89242 1.76667 3.49206 2.03333 3.98589 2.43333L14.9912 10.8333L26.0141 2.43333C26.5079 2.03333 27.1076 1.76667 27.6896 2.31667Z" fill="white"/>
</svg>
